<mxfile host="app.diagrams.net" modified="2021-09-26T09:35:56.858Z" agent="5.0 (Macintosh; Intel Mac OS X 10_15_5) AppleWebKit/537.36 (KHTML, like Gecko) Chrome/92.0.4515.159 Safari/537.36" etag="HBGcTDygpDXd6oyycPyK" version="15.3.0" type="github">
  <diagram id="wxaeso3BTO3hlJIzFYQ7" name="Page-1">
    <mxGraphModel dx="1025" dy="592" grid="1" gridSize="10" guides="1" tooltips="1" connect="1" arrows="1" fold="1" page="1" pageScale="1" pageWidth="827" pageHeight="1169" math="0" shadow="0">
      <root>
        <mxCell id="0" />
        <mxCell id="1" parent="0" />
        <mxCell id="kzYSpkBcY4cZTi2Nwt4i-9" style="edgeStyle=orthogonalEdgeStyle;rounded=0;orthogonalLoop=1;jettySize=auto;html=1;exitX=1;exitY=0.5;exitDx=0;exitDy=0;entryX=0;entryY=0.5;entryDx=0;entryDy=0;" edge="1" parent="1" source="kzYSpkBcY4cZTi2Nwt4i-1" target="kzYSpkBcY4cZTi2Nwt4i-3">
          <mxGeometry relative="1" as="geometry" />
        </mxCell>
        <mxCell id="kzYSpkBcY4cZTi2Nwt4i-10" style="edgeStyle=orthogonalEdgeStyle;rounded=0;orthogonalLoop=1;jettySize=auto;html=1;exitX=1;exitY=0.5;exitDx=0;exitDy=0;entryX=0;entryY=0.5;entryDx=0;entryDy=0;" edge="1" parent="1" source="kzYSpkBcY4cZTi2Nwt4i-1" target="kzYSpkBcY4cZTi2Nwt4i-4">
          <mxGeometry relative="1" as="geometry" />
        </mxCell>
        <mxCell id="kzYSpkBcY4cZTi2Nwt4i-11" style="edgeStyle=orthogonalEdgeStyle;rounded=0;orthogonalLoop=1;jettySize=auto;html=1;exitX=1;exitY=0.5;exitDx=0;exitDy=0;" edge="1" parent="1" source="kzYSpkBcY4cZTi2Nwt4i-1" target="kzYSpkBcY4cZTi2Nwt4i-5">
          <mxGeometry relative="1" as="geometry">
            <Array as="points">
              <mxPoint x="460" y="240" />
              <mxPoint x="460" y="290" />
            </Array>
          </mxGeometry>
        </mxCell>
        <mxCell id="kzYSpkBcY4cZTi2Nwt4i-1" value="grpc" style="rounded=1;whiteSpace=wrap;html=1;" vertex="1" parent="1">
          <mxGeometry x="294" y="210" width="120" height="60" as="geometry" />
        </mxCell>
        <mxCell id="kzYSpkBcY4cZTi2Nwt4i-15" style="edgeStyle=orthogonalEdgeStyle;rounded=0;orthogonalLoop=1;jettySize=auto;html=1;exitX=1;exitY=0.5;exitDx=0;exitDy=0;entryX=0;entryY=0.5;entryDx=0;entryDy=0;" edge="1" parent="1" source="kzYSpkBcY4cZTi2Nwt4i-2" target="kzYSpkBcY4cZTi2Nwt4i-12">
          <mxGeometry relative="1" as="geometry" />
        </mxCell>
        <mxCell id="kzYSpkBcY4cZTi2Nwt4i-16" style="edgeStyle=orthogonalEdgeStyle;rounded=0;orthogonalLoop=1;jettySize=auto;html=1;exitX=1;exitY=0.5;exitDx=0;exitDy=0;entryX=0;entryY=0.5;entryDx=0;entryDy=0;" edge="1" parent="1" source="kzYSpkBcY4cZTi2Nwt4i-2" target="kzYSpkBcY4cZTi2Nwt4i-13">
          <mxGeometry relative="1" as="geometry" />
        </mxCell>
        <mxCell id="kzYSpkBcY4cZTi2Nwt4i-17" style="edgeStyle=orthogonalEdgeStyle;rounded=0;orthogonalLoop=1;jettySize=auto;html=1;exitX=1;exitY=0.5;exitDx=0;exitDy=0;entryX=0;entryY=0.5;entryDx=0;entryDy=0;" edge="1" parent="1" source="kzYSpkBcY4cZTi2Nwt4i-2" target="kzYSpkBcY4cZTi2Nwt4i-14">
          <mxGeometry relative="1" as="geometry" />
        </mxCell>
        <mxCell id="kzYSpkBcY4cZTi2Nwt4i-2" value="kafka" style="rounded=1;whiteSpace=wrap;html=1;" vertex="1" parent="1">
          <mxGeometry x="294" y="385" width="120" height="60" as="geometry" />
        </mxCell>
        <mxCell id="kzYSpkBcY4cZTi2Nwt4i-3" value="JVMMetricsSender" style="rounded=1;whiteSpace=wrap;html=1;" vertex="1" parent="1">
          <mxGeometry x="500" y="175" width="120" height="30" as="geometry" />
        </mxCell>
        <mxCell id="kzYSpkBcY4cZTi2Nwt4i-4" value="TraceSegmentServiceClient" style="rounded=1;whiteSpace=wrap;html=1;" vertex="1" parent="1">
          <mxGeometry x="500" y="225" width="170" height="30" as="geometry" />
        </mxCell>
        <mxCell id="kzYSpkBcY4cZTi2Nwt4i-5" value="MeterSender" style="rounded=1;whiteSpace=wrap;html=1;" vertex="1" parent="1">
          <mxGeometry x="500" y="275" width="170" height="30" as="geometry" />
        </mxCell>
        <mxCell id="kzYSpkBcY4cZTi2Nwt4i-7" style="edgeStyle=orthogonalEdgeStyle;rounded=0;orthogonalLoop=1;jettySize=auto;html=1;exitX=1;exitY=0.5;exitDx=0;exitDy=0;entryX=0;entryY=0.5;entryDx=0;entryDy=0;" edge="1" parent="1" source="kzYSpkBcY4cZTi2Nwt4i-6" target="kzYSpkBcY4cZTi2Nwt4i-1">
          <mxGeometry relative="1" as="geometry" />
        </mxCell>
        <mxCell id="kzYSpkBcY4cZTi2Nwt4i-8" style="edgeStyle=orthogonalEdgeStyle;rounded=0;orthogonalLoop=1;jettySize=auto;html=1;exitX=1;exitY=0.5;exitDx=0;exitDy=0;entryX=0;entryY=0.5;entryDx=0;entryDy=0;" edge="1" parent="1" source="kzYSpkBcY4cZTi2Nwt4i-6" target="kzYSpkBcY4cZTi2Nwt4i-2">
          <mxGeometry relative="1" as="geometry" />
        </mxCell>
        <mxCell id="kzYSpkBcY4cZTi2Nwt4i-6" value="agent data" style="rounded=1;whiteSpace=wrap;html=1;" vertex="1" parent="1">
          <mxGeometry x="80" y="290" width="120" height="60" as="geometry" />
        </mxCell>
        <mxCell id="kzYSpkBcY4cZTi2Nwt4i-12" value="KafkaJVMMetricsSender" style="rounded=1;whiteSpace=wrap;html=1;" vertex="1" parent="1">
          <mxGeometry x="500" y="350" width="170" height="30" as="geometry" />
        </mxCell>
        <mxCell id="kzYSpkBcY4cZTi2Nwt4i-13" value="KafkaMeterSender" style="rounded=1;whiteSpace=wrap;html=1;" vertex="1" parent="1">
          <mxGeometry x="500" y="400" width="170" height="30" as="geometry" />
        </mxCell>
        <mxCell id="kzYSpkBcY4cZTi2Nwt4i-14" value="KafkaTraceSegmentServiceClient" style="rounded=1;whiteSpace=wrap;html=1;" vertex="1" parent="1">
          <mxGeometry x="500" y="450" width="190" height="30" as="geometry" />
        </mxCell>
      </root>
    </mxGraphModel>
  </diagram>
</mxfile>
